<svg version="1.1" id="Layer_1" xmlns="http://www.w3.org/2000/svg" xmlns:xlink="http://www.w3.org/1999/xlink" x="0px" y="0px"
	 width="100%" viewBox="0 0 647 350" enable-background="new 0 0 647 350" xml:space="preserve">
<path fill="#000000" opacity="1.000000" stroke="none" 
	d="
M395.000000,351.000000 
	C263.333374,351.000000 132.166733,351.000000 1.000070,351.000000 
	C1.000047,234.333389 1.000047,117.666786 1.000023,1.000133 
	C216.666565,1.000089 432.333130,1.000089 647.999756,1.000044 
	C647.999878,117.666527 647.999878,234.333054 647.999939,350.999786 
	C563.833313,351.000000 479.666656,351.000000 395.000000,351.000000 
M58.830097,74.787163 
	C57.611656,74.961090 56.393211,75.135017 54.779873,75.365318 
	C75.054977,137.879807 95.174957,199.916031 115.311836,262.004333 
	C123.741722,262.004333 131.735916,261.848755 139.718506,262.084869 
	C142.695694,262.172913 143.277145,260.553497 143.982758,258.365234 
	C158.108536,214.557953 172.266907,170.761169 186.439194,126.968887 
	C187.827576,122.678825 189.349503,118.431969 191.218460,112.969643 
	C192.422882,115.975151 193.171173,117.629288 193.758347,119.338776 
	C209.625595,165.535278 225.506088,211.727310 241.265518,257.960602 
	C242.361176,261.174927 244.151947,262.472076 247.355301,262.440399 
	C254.518890,262.369476 261.686401,262.230743 268.845581,262.401489 
	C271.818481,262.472412 273.162781,261.417542 274.323151,258.668396 
	C279.815430,245.655869 285.688965,232.804520 291.206512,219.802307 
	C292.607941,216.499847 294.227295,215.064133 298.115387,215.089447 
	C328.439880,215.286972 358.766571,215.263199 389.091553,215.109222 
	C392.512573,215.091843 394.009949,216.230865 395.302917,219.276794 
	C400.952209,232.585068 406.840790,245.792755 412.768402,258.980347 
	C413.357361,260.290649 414.773102,262.141449 415.853058,262.174500 
	C424.439575,262.437256 433.037750,262.320953 442.334198,262.320953 
	C413.584961,199.055145 385.207367,136.607086 356.801178,74.096153 
	C349.413940,74.096153 342.240784,74.361137 335.100891,73.989037 
	C331.292328,73.790550 329.648254,75.193085 328.149200,78.524147 
	C305.979431,127.788422 283.669067,176.989441 261.383179,226.201447 
	C260.424683,228.317978 259.380737,230.395828 257.878845,233.530701 
	C241.919846,184.246277 226.371567,136.384094 210.942154,88.483643 
	C206.546326,74.836807 206.704681,74.785789 192.398056,74.785828 
	C190.565186,74.785828 188.710220,74.967491 186.904099,74.747719 
	C183.333649,74.313255 181.759674,75.801270 180.585754,79.233742 
	C164.509964,126.238365 148.267944,173.186142 132.047241,220.141144 
	C131.704605,221.132965 131.129654,222.044540 130.243835,223.846298 
	C113.980934,173.675476 98.005974,124.392960 81.925949,74.786285 
	C74.386292,74.786285 67.073296,74.786285 58.830097,74.787163 
M539.048157,115.499992 
	C539.048157,164.275467 539.048157,213.050934 539.048157,261.819031 
	C541.393311,261.819031 543.265930,261.819031 545.044556,261.819031 
	C545.044556,199.373291 545.044556,137.285202 545.044556,75.188217 
	C542.938293,75.188217 541.080261,75.188217 539.048157,75.188217 
	C539.048157,88.534813 539.048157,101.517395 539.048157,115.499992 
z"/>
<path fill="#FCFCFC" opacity="1.000000" stroke="none" 
	d="
M59.295197,74.786728 
	C67.073296,74.786285 74.386292,74.786285 81.925949,74.786285 
	C98.005974,124.392960 113.980934,173.675476 130.243835,223.846298 
	C131.129654,222.044540 131.704605,221.132965 132.047241,220.141144 
	C148.267944,173.186142 164.509964,126.238365 180.585754,79.233742 
	C181.759674,75.801270 183.333649,74.313255 186.904099,74.747719 
	C188.710220,74.967491 190.565186,74.785828 192.398056,74.785828 
	C206.704681,74.785789 206.546326,74.836807 210.942154,88.483643 
	C226.371567,136.384094 241.919846,184.246277 257.878845,233.530701 
	C259.380737,230.395828 260.424683,228.317978 261.383179,226.201447 
	C283.669067,176.989441 305.979431,127.788422 328.149200,78.524147 
	C329.648254,75.193085 331.292328,73.790550 335.100891,73.989037 
	C342.240784,74.361137 349.413940,74.096153 356.801178,74.096153 
	C385.207367,136.607086 413.584961,199.055145 442.334198,262.320953 
	C433.037750,262.320953 424.439575,262.437256 415.853058,262.174500 
	C414.773102,262.141449 413.357361,260.290649 412.768402,258.980347 
	C406.840790,245.792755 400.952209,232.585068 395.302917,219.276794 
	C394.009949,216.230865 392.512573,215.091843 389.091553,215.109222 
	C358.766571,215.263199 328.439880,215.286972 298.115387,215.089447 
	C294.227295,215.064133 292.607941,216.499847 291.206512,219.802307 
	C285.688965,232.804520 279.815430,245.655869 274.323151,258.668396 
	C273.162781,261.417542 271.818481,262.472412 268.845581,262.401489 
	C261.686401,262.230743 254.518890,262.369476 247.355301,262.440399 
	C244.151947,262.472076 242.361176,261.174927 241.265518,257.960602 
	C225.506088,211.727310 209.625595,165.535278 193.758347,119.338776 
	C193.171173,117.629288 192.422882,115.975151 191.218460,112.969643 
	C189.349503,118.431969 187.827576,122.678825 186.439194,126.968887 
	C172.266907,170.761169 158.108536,214.557953 143.982758,258.365234 
	C143.277145,260.553497 142.695694,262.172913 139.718506,262.084869 
	C131.735916,261.848755 123.741722,262.004333 115.311836,262.004333 
	C95.174957,199.916031 75.054977,137.879807 54.779873,75.365318 
	C56.393211,75.135017 57.611656,74.961090 59.295197,74.786728 
M315.171082,165.665894 
	C311.172394,174.833939 307.173676,184.001968 303.025116,193.513596 
	C330.280731,193.513596 356.647308,193.513596 383.850067,193.513596 
	C370.390137,162.939133 357.173798,132.917999 343.402496,101.636299 
	C333.663910,123.729019 324.573730,144.350800 315.171082,165.665894 
z"/>
<path fill="#FBFBFB" opacity="1.000000" stroke="none" 
	d="
M539.048157,114.999985 
	C539.048157,101.517395 539.048157,88.534813 539.048157,75.188217 
	C541.080261,75.188217 542.938293,75.188217 545.044556,75.188217 
	C545.044556,137.285202 545.044556,199.373291 545.044556,261.819031 
	C543.265930,261.819031 541.393311,261.819031 539.048157,261.819031 
	C539.048157,213.050934 539.048157,164.275467 539.048157,114.999985 
z"/>
<path fill="#040404" opacity="1.000000" stroke="none" 
	d="
M315.327332,165.319244 
	C324.573730,144.350800 333.663910,123.729019 343.402496,101.636299 
	C357.173798,132.917999 370.390137,162.939133 383.850067,193.513596 
	C356.647308,193.513596 330.280731,193.513596 303.025116,193.513596 
	C307.173676,184.001968 311.172394,174.833939 315.327332,165.319244 
z"/>
</svg>